#!OML:ASF F:\VICON\USERDATA\INSTALL\Justin_Nancy\Justin_Nancy.ASF
:FULLY-SPECIFIED
:DEGREES
112
root 9.14568 17.4483 -12.5848 -0.928479 -2.04651 5.43631
lowerback 8.14505 -0.717108 -5.11327
upperback 0.383689 -1.36224 1.5371
thorax -4.01667 -0.568908 4.64014
lowerneck -17.4179 -4.16855 -9.87765
upperneck 21.1369 -4.42255 5.64143
head 9.9556 -2.20688 3.01629
rclavicle -2.23633e-015 7.15625e-015
rhumerus -35.5631 -17.9099 -75.2899
rradius 29.0555
rwrist 6.48699
rhand -12.0784 16.3324
rfingers 7.12502
rthumb 13.9815 -13.1775
lclavicle -2.23633e-015 7.15625e-015
lhumerus -25.0567 9.10138 83.0982
lradius 25.2653
lwrist -10.9075
lhand -13.4108 27.5183
lfingers 7.12502
lthumb 12.6972 57.1123
rfemur -31.0302 -6.32929 18.2641
rtibia 51.5748
rfoot -8.05165 -8.84808
rtoes 3.36116
lfemur -6.12227 0.548447 -26.5599
ltibia 26.8343
lfoot -16.1784 2.19419
ltoes -4.30711
113
root 9.12092 17.4615 -12.4478 -0.934009 -2.23321 5.56567
lowerback 8.15885 -0.73339 -5.22926
upperback 0.456645 -1.39523 1.51007
thorax -3.94227 -0.587466 4.68018
lowerneck -17.7984 -4.16962 -9.67911
upperneck 21.2469 -4.41852 5.53454
head 10.0577 -2.19652 2.94361
rclavicle 2.03754e-015 -2.38542e-015
rhumerus -35.6463 -18.1336 -75.2327
rradius 29.2368
rwrist 7.26959
rhand -12.7417 14.9507
rfingers 7.12502
rthumb 13.3421 -14.6022
lclavicle 2.03754e-015 -2.38542e-015
lhumerus -24.6986 8.95648 83.1072
lradius 25.74
lwrist -10.5933
lhand -12.9881 28.5745
lfingers 7.12502
lthumb 13.1046 58.1428
rfemur -30.8912 -6.23018 18.0874
rtibia 48.6742
rfoot -7.55332 -9.56114
rtoes 3.36615
lfemur -5.33479 0.647907 -26.681
ltibia 26.5026
lfoot -16.4504 2.57229
ltoes -5.12305
114
root 9.09571 17.4577 -12.3072 -0.870016 -2.37866 5.5404
lowerback 7.99081 -0.775712 -5.20439
upperback 0.565643 -1.43699 1.55244
thorax -3.72868 -0.617774 4.7083
lowerneck -17.936 -4.13412 -9.79921
upperneck 21.2617 -4.35703 5.68286
head 10.0897 -2.15893 3.02468
rclavicle 7.25564e-015 -1.11319e-014
rhumerus -35.5639 -18.5412 -75.0812
rradius 29.0713
rwrist 7.86941
rhand -12.9909 14.2252
rfingers 7.12502
rthumb 13.102 -15.3433
lclavicle 7.25564e-015 -1.11319e-014
lhumerus -24.1917 8.74155 83.137
lradius 26.018
lwrist -10.7317
lhand -12.4842 29.6819
lfingers 7.12502
lthumb 13.5904 59.2183
rfemur -30.7731 -6.08692 18.0859
rtibia 45.708
rfoot -6.79707 -10.1634
rtoes 3.6909
lfemur -4.58548 0.762598 -26.6169
ltibia 25.992
lfoot -16.5972 2.83542
ltoes -5.83593
115
root 9.06572 17.4616 -12.1666 -0.683686 -2.44448 5.51757
lowerback 7.79279 -0.853213 -5.2333
upperback 0.557339 -1.53086 1.60094
thorax -3.61314 -0.667239 4.77976
lowerneck -17.6702 -4.01648 -9.95009
upperneck 20.9706 -4.2273 5.92904
head 9.93341 -2.08394 3.15496
rclavicle -2.61402e-014 7.15625e-015
rhumerus -35.6399 -18.9221 -74.8596
rradius 28.7407
rwrist 8.19838
rhand -12.8934 14.1335
rfingers 7.12502
rthumb 13.196 -15.4288
lclavicle -2.61402e-014 7.15625e-015
lhumerus -23.8375 8.60635 83.1315
lradius 26.1593
lwrist -10.9911
lhand -13.6283 28.0323
lfingers 7.12502
lthumb 12.4875 57.6392
rfemur -30.7779 -5.85497 18.0639
rtibia 42.7748
rfoot -5.87529 -10.7038
rtoes 5.15934
lfemur -3.95975 0.819704 -26.4915
ltibia 25.3313
lfoot -16.6902 2.78981
ltoes -4.60316
116
root 9.03479 17.4557 -12.0208 -0.576963 -2.38117 5.53356
lowerback 7.79237 -0.978107 -5.29992
upperback 0.486101 -1.70137 1.67584
thorax -3.66256 -0.747149 4.91501
lowerneck -17.7917 -4.01117 -9.94087
upperneck 21.0645 -4.17937 5.79168
head 9.98242 -2.07614 3.11145
rclavicle -3.07122e-014 1.82882e-014
rhumerus -35.97 -18.9035 -74.6849
rradius 28.7326
rwrist 8.28178
rhand -13.2711 13.2981
rfingers 7.12502
rthumb 12.8318 -16.2875
lclavicle -3.07122e-014 1.82882e-014
lhumerus -23.6802 8.27629 83.197
lradius 26.4722
lwrist -10.2899
lhand -14.8023 25.3958
lfingers 7.12502
lthumb 11.3554 55.0684
rfemur -30.6274 -5.75688 17.9599
rtibia 39.8737
rfoot -5.0289 -11.2779
rtoes 6.20603
lfemur -3.31938 0.632202 -26.411
ltibia 24.6011
lfoot -16.5805 2.83066
ltoes -2.96509
117
root 9.00367 17.4534 -11.8802 -0.441648 -2.41434 5.82618
lowerback 7.63765 -1.05154 -5.62191
upperback 0.458826 -1.82113 1.63282
thorax -3.58123 -0.803975 5.05996
lowerneck -17.7745 -4.05972 -9.96871
upperneck 21.1115 -4.24782 5.80905
head 10.0033 -2.10901 3.11316
rclavicle 8.54774e-015 -7.95139e-016
rhumerus -36.2087 -18.7272 -74.7135
rradius 28.8333
rwrist 8.2264
rhand -13.6391 12.258
rfingers 7.12502
rthumb 12.4771 -17.3495
lclavicle 8.54774e-015 -7.95139e-016
lhumerus -23.4447 7.99542 83.2133
lradius 26.9192
lwrist -9.4661
lhand -14.9126 25.1309
lfingers 7.12502
lthumb 11.249 54.8093
rfemur -30.501 -5.42132 17.5088
rtibia 36.9178
rfoot -4.53758 -12.1347
rtoes 8.29887
lfemur -2.72456 0.645348 -26.6579
ltibia 23.8612
lfoot -16.3112 3.01396
ltoes -3.15429
118
root 8.97197 17.4456 -11.7429 -0.362308 -2.56439 6.05808
lowerback 7.35434 -1.08 -5.90615
upperback 0.595785 -1.86516 1.6006
thorax -3.26602 -0.836581 5.17891
lowerneck -17.7528 -4.07887 -9.8831
upperneck 20.8845 -4.29451 5.81347
head 9.92017 -2.12071 3.09084
rclavicle 1.16289e-014 -2.38542e-015
rhumerus -35.9312 -19.2076 -74.6334
rradius 28.3855
rwrist 8.57928
rhand -13.7846 12.0981
rfingers 7.12502
rthumb 12.3368 -17.5179
lclavicle 1.16289e-014 -2.38542e-015
lhumerus -23.041 7.87441 83.222
lradius 27.3845
lwrist -8.93776
lhand -14.8361 26.2909
lfingers 7.12502
lthumb 11.3228 55.9653
rfemur -30.2996 -5.04647 17.1481
rtibia 33.8841
rfoot -4.70917 -12.9619
rtoes 11.9564
lfemur -1.95015 0.679882 -26.8568
ltibia 23.1843
lfoot -16.2919 3.39642
ltoes -2.98373
119
root 8.9397 17.4373 -11.6019 -0.28404 -2.84679 6.02239
lowerback 6.94435 -1.07043 -5.92713
upperback 0.86834 -1.82161 1.68043
thorax -2.75478 -0.839881 5.25112
lowerneck -18.2997 -4.11679 -9.77846
upperneck 20.9042 -4.28752 5.68057
head 10.0229 -2.11569 3.02264
rclavicle -3.38928e-014 2.14687e-014
rhumerus -35.3259 -20.2159 -74.3286
rradius 27.5886
rwrist 9.39517
rhand -13.9322 12.759
rfingers 7.12502
rthumb 12.1944 -16.8655
lclavicle -3.38928e-014 2.14687e-014
lhumerus -22.3587 7.77654 83.3457
lradius 27.6031
lwrist -8.68861
lhand -15.1703 26.5331
lfingers 7.12502
lthumb 11.0005 56.2249
rfemur -29.9245 -4.57446 17.0935
rtibia 30.7255
rfoot -3.82795 -13.4607
rtoes 10.279
lfemur -1.1356 1.06881 -26.7392
ltibia 22.6113
lfoot -16.5041 3.6521
ltoes -3.85406
120
root 8.90771 17.4381 -11.4596 -0.220935 -3.24284 5.77746
lowerback 6.68732 -1.02609 -5.65923
upperback 1.04504 -1.72136 1.80081
thorax -2.4448 -0.807564 5.20516
lowerneck -18.8405 -4.16305 -9.85735
upperneck 21.0732 -4.284 5.70768
head 10.1866 -2.11078 3.04379
rclavicle -2.9122e-014 9.54166e-015
rhumerus -35.2631 -20.2367 -74.2795
rradius 27.6232
rwrist 9.19426
rhand -13.903 13.0848
rfingers 7.12502
rthumb 12.2226 -16.5381
lclavicle -2.9122e-014 9.54166e-015
lhumerus -21.8273 7.53047 83.4778
lradius 27.8192
lwrist -8.41386
lhand -15.3274 26.775
lfingers 7.12502
lthumb 10.849 56.4748
rfemur -29.3794 -4.02097 17.2532
rtibia 27.5651
rfoot -3.64122 -14.0963
rtoes 8.38561
lfemur -0.333778 1.43723 -26.4228
ltibia 22.159
lfoot -16.6464 4.01478
ltoes -5.50274
121
root 8.87315 17.4461 -11.3233 -0.160807 -3.39838 5.80163
lowerback 6.83724 -1.01451 -5.63023
upperback 0.968404 -1.713 1.81453
thorax -2.60986 -0.795941 5.20873
lowerneck -18.8902 -4.17007 -10.02
upperneck 21.0356 -4.28901 5.90995
head 10.1914 -2.10146 3.14204
rclavicle 5.06901e-015 -3.97569e-015
rhumerus -35.6692 -19.8347 -74.2873
rradius 27.9214
rwrist 8.55046
rhand -13.6847 13.2591
rfingers 7.12502
rthumb 12.4332 -16.3511
lclavicle 5.06901e-015 -3.97569e-015
lhumerus -21.6509 7.3114 83.5019
lradius 28.0813
lwrist -8.38362
lhand -15.1191 26.7994
lfingers 7.12502
lthumb 11.0499 56.4886
rfemur -28.855 -3.50444 17.0524
rtibia 24.6766
rfoot -4.33936 -15.1427
rtoes 8.03186
lfemur 0.587352 1.44178 -26.3971
ltibia 21.5363
lfoot -16.774 4.09301
ltoes -5.82834
122
root 8.83814 17.4463 -11.187 -0.0672802 -3.3316 6.18032
lowerback 6.95585 -1.12217 -5.89286
upperback 0.780566 -1.89068 1.67287
thorax -2.84477 -0.869206 5.23177
lowerneck -18.3722 -4.10821 -10.0158
upperneck 20.7865 -4.26494 5.96626
head 10.0045 -2.0891 3.16552
rclavicle -2.66371e-014 -3.97569e-015
rhumerus -35.8495 -20.5659 -73.8784
rradius 27.2575
rwrist 9.16074
rhand -13.4492 13.8443
rfingers 7.12502
rthumb 12.6601 -15.752
lclavicle -2.66371e-014 -3.97569e-015
lhumerus -21.7126 7.04611 83.3764
lradius 28.4204
lwrist -8.0886
lhand -15.0954 26.2926
lfingers 7.12502
lthumb 11.0728 55.9805
rfemur -28.3445 -3.10088 16.3976
rtibia 21.8461
rfoot -4.87127 -16.207
rtoes 7.81195
lfemur 1.38338 1.53458 -26.7227
ltibia 20.9166
lfoot -16.7972 4.05127
ltoes -7.58295
123
root 8.80386 17.4139 -11.04 0.0263598 -3.35325 6.33058
lowerback 6.81193 -1.26054 -5.89928
upperback 0.711399 -2.07049 1.608
thorax -2.81451 -0.958338 5.17856
lowerneck -17.9671 -4.09916 -10.0658
upperneck 20.5851 -4.27586 5.97179
head 9.86004 -2.10187 3.17439
rclavicle 4.96962e-016 -1.35174e-014
rhumerus -35.8809 -21.0519 -73.6402
rradius 26.6938
rwrist 9.78783
rhand -13.6279 13.6684
rfingers 7.12502
rthumb 12.4879 -15.9385
lclavicle 4.96962e-016 -1.35174e-014
lhumerus -21.7814 6.8194 83.228
lradius 28.8224
lwrist -7.68396
lhand -15.4005 25.272
lfingers 7.12502
lthumb 10.7784 54.9755
rfemur -27.8814 -2.70811 15.9756
rtibia 19.2289
rfoot -5.20853 -16.9321
rtoes 8.24926
lfemur 1.80196 1.81382 -26.8287
ltibia 20.2557
lfoot -16.2291 4.55502
ltoes -14.3028
